<svg width="499" height="142" viewBox="0 0 499 142" fill="none" xmlns="http://www.w3.org/2000/svg">
<rect x="1.5" y="121.5" width="496" height="19" fill="white" stroke="black" stroke-width="3"/>
<rect x="69.5" y="35.5" width="37" height="57" rx="18.5" fill="white" stroke="black" stroke-width="3"/>
<line x1="68.6862" y1="34.3991" x2="80.2564" y2="48.1879" stroke="black" stroke-width="3"/>
<line y1="-1.5" x2="18" y2="-1.5" transform="matrix(-0.642788 0.766044 0.766044 0.642788 109.57 35)" stroke="black" stroke-width="3"/>
<line x1="88.5" y1="45" x2="88.5" y2="27" stroke="black" stroke-width="3"/>
<path d="M66.8524 121.5L61.6637 71.5H113.336L108.148 121.5H66.8524Z" fill="white" stroke="black" stroke-width="3"/>
<rect x="321.064" y="68.6613" width="94.871" height="52.5" fill="white" stroke="black" stroke-width="3"/>
<rect x="314.5" y="61.5" width="108" height="11.3226" fill="white" stroke="black" stroke-width="3"/>
<rect x="355.081" y="73.0323" width="24.4516" height="11.3226" fill="white" stroke="black" stroke-width="3"/>
<rect x="136.5" y="40.5" width="161" height="81" fill="white" stroke="black" stroke-width="3"/>
<rect x="125.5" y="19.5" width="183" height="21" fill="white" stroke="black" stroke-width="3"/>
<rect x="193.5" y="40.5" width="43" height="21" stroke="black" stroke-width="3"/>
<rect x="350.5" y="12.5" width="94" height="49" fill="white" stroke="black" stroke-width="3"/>
<rect x="343.5" y="1.5" width="108" height="11" stroke="black" stroke-width="3"/>
<rect x="384.081" y="13.0323" width="24.4516" height="11.3226" stroke="black" stroke-width="3"/>
</svg>
