<svg width="298" height="424" viewBox="0 0 298 424" fill="none" xmlns="http://www.w3.org/2000/svg">
<rect x="86.5" y="73.5" width="210" height="349" fill="#A3C6E0" stroke="black" stroke-width="3"/>
<rect x="1.5" y="69.5" width="85" height="353" fill="white" stroke="black" stroke-width="3"/>
<rect x="1.5" y="1.5" width="295" height="72" fill="white" stroke="black" stroke-width="3"/>
<rect x="24.5" y="151.5" width="39" height="60" fill="white" stroke="black" stroke-width="3"/>
<rect x="106.093" y="256.68" width="13" height="60" transform="rotate(-35.7007 106.093 256.68)" fill="#A3C6E0" stroke="black" stroke-width="3"/>
<line x1="23.9937" y1="169" x2="63.0065" y2="169" stroke="black" stroke-width="3"/>
<line x1="36.5" y1="213" x2="36.5" y2="168" stroke="black" stroke-width="3"/>
<line x1="50" y1="213.006" x2="50" y2="167.995" stroke="black" stroke-width="3"/>
<line x1="24" y1="182.5" x2="65" y2="182.5" stroke="black" stroke-width="3"/>
<line x1="23" y1="196.5" x2="64" y2="196.5" stroke="black" stroke-width="3"/>
<path d="M115 162V103.399L135.515 125.29L146.103 97L160 145.161" stroke="black" stroke-width="3"/>
<path d="M170 146V112L189 137.087" stroke="black" stroke-width="3"/>
<path d="M162 129L187 124" stroke="black" stroke-width="3"/>
<path d="M194 108L197 136L223 131.667L220.333 108" stroke="black" stroke-width="3"/>
<path d="M208 114L212 138" stroke="black" stroke-width="3"/>
<path d="M231 133L236.089 105L250 130.268" stroke="black" stroke-width="3"/>
<path d="M228 120H250" stroke="black" stroke-width="3"/>
<path d="M172.62 192.164L176.53 150.588L196.233 183.966" stroke="black" stroke-width="3"/>
<path d="M166.839 201.932L164.215 194.376L207.034 179.51L210.313 188.955" stroke="black" stroke-width="3"/>
<path d="M199.054 156.527L218.963 164.079L218.015 147.121" stroke="black" stroke-width="3"/>
<path d="M219.168 163.655L220.143 182.72" stroke="black" stroke-width="3"/>
<path d="M227.499 147.004L237.665 176.284" stroke="black" stroke-width="3"/>
<path d="M226.685 157.87C230.497 153.607 238.415 146.742 239.594 153.388C240.772 160.035 232.852 167.841 228.744 170.914" stroke="black" stroke-width="3"/>
<path d="M252.795 163.975L243.066 135.954L272 157.307" stroke="black" stroke-width="3"/>
<path d="M244.496 149.217L268.559 143.332" stroke="black" stroke-width="3"/>
</svg>
