<svg width="512" height="164" viewBox="0 0 512 164" fill="none" xmlns="http://www.w3.org/2000/svg">
<path d="M108.248 60.9857L45.318 105.393L52.3103 28.6898L108.248 60.9857Z" stroke="black" stroke-width="3"/>
<path d="M194.849 85.5396L150.902 148.792L131.238 74.3233L194.849 85.5396Z" stroke="black" stroke-width="3"/>
<path d="M290.184 90.3881L257.888 160.311L225.592 90.3881L290.184 90.3881Z" stroke="black" stroke-width="3"/>
<path d="M384.687 74.3232L365.024 148.792L321.077 85.5395L384.687 74.3232Z" stroke="black" stroke-width="3"/>
<path d="M460.748 28.6898L467.741 105.393L404.81 60.9857L460.748 28.6898Z" stroke="black" stroke-width="3"/>
<path fill-rule="evenodd" clip-rule="evenodd" d="M285.568 103.96C299.878 102.87 314.059 100.938 328.042 98.1923L329.832 100.769C314.818 103.77 299.576 105.84 284.189 106.945L285.568 103.96ZM383.2 85.8315L384.095 82.4413C394.403 78.6325 404.535 74.3583 414.461 69.6313L417.152 71.5304C406.079 76.8638 394.747 81.6367 383.2 85.8315ZM463.718 44.7371C479.794 33.8469 495.074 21.6342 509.386 8.16697C510.114 7.48196 510.839 6.79371 511.562 6.10221L509.575 4.0244C495.143 17.8278 479.698 30.3311 463.419 41.4623L463.718 44.7371ZM230.209 103.96C215.941 102.873 201.804 100.949 187.867 98.2182L186.076 100.795C201.044 103.782 216.242 105.843 231.587 106.945L230.209 103.96ZM131.847 82.5026L132.742 85.8916C120.575 81.4782 108.649 76.4238 97.0137 70.7495L99.6976 68.8556C110.191 73.9166 120.92 78.4708 131.847 82.5026ZM49.8007 39.6981C33.0853 28.0577 17.2729 14.9625 2.56251 0.494751L0.546387 2.54469C1.25965 3.24616 1.97547 3.94448 2.69386 4.63957C17.3047 18.7766 32.9696 31.5855 49.5007 42.9885L49.8007 39.6981Z" fill="black"/>
</svg>
