<svg width="209" height="361" viewBox="0 0 209 361" fill="none" xmlns="http://www.w3.org/2000/svg">
<g clip-path="url(#clip0_66_946)">
<path d="M187 1.5H22C10.6782 1.5 1.5 10.6782 1.5 22V339C1.5 350.322 10.6782 359.5 22 359.5H187C198.322 359.5 207.5 350.322 207.5 339V22C207.5 10.6782 198.322 1.5 187 1.5Z" fill="white" stroke="black" stroke-width="3"/>
<path d="M1.99902 91H209.001" stroke="black" stroke-width="3"/>
<path d="M80.5308 127.909L39.9092 142.012L55.6516 187.357L96.2732 173.255L80.5308 127.909Z" fill="white" stroke="black" stroke-width="3"/>
<path d="M150.397 198.351L121.365 189.861L111.861 222.362L140.893 230.851L150.397 198.351Z" fill="white" stroke="black" stroke-width="3"/>
<path d="M145.812 180.079L134.809 176.861L127.861 200.622L138.864 203.839L145.812 180.079Z" fill="white" stroke="black" stroke-width="3"/>
<path d="M168.5 113.5H115.5V147.5H168.5V113.5Z" fill="white" stroke="black" stroke-width="3"/>
<path d="M142 120.5C146.694 120.5 150.5 116.694 150.5 112C150.5 107.306 146.694 103.5 142 103.5C137.306 103.5 133.5 107.306 133.5 112C133.5 116.694 137.306 120.5 142 120.5Z" fill="white"/>
<path d="M142 120.5C146.694 120.5 150.5 116.694 150.5 112C150.5 107.306 146.694 103.5 142 103.5C137.306 103.5 133.5 107.306 133.5 112C133.5 116.694 137.306 120.5 142 120.5Z" fill="white"/>
<path d="M142 120.5C146.694 120.5 150.5 116.694 150.5 112C150.5 107.306 146.694 103.5 142 103.5C137.306 103.5 133.5 107.306 133.5 112C133.5 116.694 137.306 120.5 142 120.5Z" fill="white"/>
<path d="M142 120.5C146.694 120.5 150.5 116.694 150.5 112C150.5 107.306 146.694 103.5 142 103.5C137.306 103.5 133.5 107.306 133.5 112C133.5 116.694 137.306 120.5 142 120.5Z" stroke="black" stroke-width="3"/>
<mask id="mask0_66_946" style="mask-type:luminance" maskUnits="userSpaceOnUse" x="0" y="48" width="45" height="90">
<path d="M0 138C5.9095 138 11.7611 136.836 17.2208 134.575C22.6804 132.313 27.6412 128.998 31.8198 124.82C35.9984 120.641 39.3131 115.68 41.5746 110.221C43.836 104.761 45 98.9095 45 93C45 87.0905 43.836 81.2389 41.5746 75.7792C39.3131 70.3196 35.9984 65.3588 31.8198 61.1802C27.6412 57.0016 22.6804 53.6869 17.2208 51.4254C11.7611 49.164 5.9095 48 0 48V93V138Z" fill="white"/>
</mask>
<g mask="url(#mask0_66_946)">
<path d="M0 138C5.9095 138 11.7611 136.836 17.2208 134.575C22.6804 132.313 27.6412 128.998 31.8198 124.82C35.9984 120.641 39.3131 115.68 41.5746 110.221C43.836 104.761 45 98.9095 45 93C45 87.0905 43.836 81.2389 41.5746 75.7792C39.3131 70.3196 35.9984 65.3588 31.8198 61.1802C27.6412 57.0016 22.6804 53.6869 17.2208 51.4254C11.7611 49.164 5.9095 48 0 48V93V138Z" stroke="black" stroke-width="6"/>
</g>
<path d="M64.1269 123.483L65.3099 148.012L46.5078 132.214L64.1269 123.483Z" fill="white" stroke="black" stroke-width="3"/>
</g>
<defs>
<clipPath id="clip0_66_946">
<rect width="209" height="361" fill="white"/>
</clipPath>
</defs>
</svg>
