<svg width="387" height="476" viewBox="0 0 387 476" fill="none" xmlns="http://www.w3.org/2000/svg">
<rect x="1.5" y="300.5" width="384" height="93" fill="white" stroke="black" stroke-width="3"/>
<rect x="17.5" y="393.5" width="34" height="81" fill="white" stroke="black" stroke-width="3"/>
<rect x="333.5" y="393.5" width="34" height="81" fill="white" stroke="black" stroke-width="3"/>
<mask id="path-4-inside-1_2217_78" fill="white">
<path fill-rule="evenodd" clip-rule="evenodd" d="M204 230.171C204 184.789 240.789 148 286.171 148C331.552 148 368.341 184.789 368.341 230.171V360H204V230.171Z"/>
</mask>
<path fill-rule="evenodd" clip-rule="evenodd" d="M204 230.171C204 184.789 240.789 148 286.171 148C331.552 148 368.341 184.789 368.341 230.171V360H204V230.171Z" fill="white"/>
<path d="M368.341 360H371.341V363H368.341V360ZM204 360V363H201V360H204ZM286.171 151C242.446 151 207 186.446 207 230.171H201C201 183.132 239.132 145 286.171 145V151ZM365.341 230.171C365.341 186.446 329.895 151 286.171 151V145C333.209 145 371.341 183.132 371.341 230.171H365.341ZM365.341 360V230.171H371.341V360H365.341ZM204 357H368.341V363H204V357ZM207 230.171V360H201V230.171H207Z" fill="black" mask="url(#path-4-inside-1_2217_78)"/>
<g clip-path="url(#clip0_2217_78)">
<mask id="path-6-inside-2_2217_78" fill="white">
<path fill-rule="evenodd" clip-rule="evenodd" d="M180.341 225.171C180.341 179.789 143.552 143 98.1705 143C52.789 143 16 179.789 16 225.171V355H180.341V225.171Z"/>
</mask>
<path fill-rule="evenodd" clip-rule="evenodd" d="M180.341 225.171C180.341 179.789 143.552 143 98.1705 143C52.789 143 16 179.789 16 225.171V355H180.341V225.171Z" fill="white"/>
<path d="M16 355H13V358H16V355ZM180.341 355V358H183.341V355H180.341ZM98.1705 146C141.895 146 177.341 181.446 177.341 225.171H183.341C183.341 178.132 145.209 140 98.1705 140V146ZM19 225.171C19 181.446 54.4459 146 98.1705 146V140C51.1322 140 13 178.132 13 225.171H19ZM19 355V225.171H13V355H19ZM180.341 352H16V358H180.341V352ZM177.341 225.171V355H183.341V225.171H177.341Z" fill="black" mask="url(#path-6-inside-2_2217_78)"/>
<mask id="path-8-inside-3_2217_78" fill="white">
<path fill-rule="evenodd" clip-rule="evenodd" d="M31 219C16.9167 219 5.5 230.417 5.5 244.5C-8.58326 244.5 -20 255.917 -20 270C-20 284.083 -8.58326 295.5 5.5 295.5C5.5 309.583 16.9167 321 31 321C45.0833 321 56.5 309.583 56.5 295.5C70.5833 295.5 82 284.083 82 270C82 255.917 70.5833 244.5 56.5 244.5C56.5 230.417 45.0833 219 31 219Z"/>
</mask>
<path fill-rule="evenodd" clip-rule="evenodd" d="M31 219C16.9167 219 5.5 230.417 5.5 244.5C-8.58326 244.5 -20 255.917 -20 270C-20 284.083 -8.58326 295.5 5.5 295.5C5.5 309.583 16.9167 321 31 321C45.0833 321 56.5 309.583 56.5 295.5C70.5833 295.5 82 284.083 82 270C82 255.917 70.5833 244.5 56.5 244.5C56.5 230.417 45.0833 219 31 219Z" fill="white"/>
<path d="M5.5 244.5V247.5H8.5V244.5H5.5ZM5.5 295.5H8.5V292.5H5.5V295.5ZM56.5 295.5V292.5H53.5V295.5H56.5ZM56.5 244.5H53.5V247.5H56.5V244.5ZM8.5 244.5C8.5 232.074 18.5736 222 31 222V216C15.2599 216 2.5 228.76 2.5 244.5H8.5ZM-17 270C-17 257.574 -6.92641 247.5 5.5 247.5V241.5C-10.2401 241.5 -23 254.26 -23 270H-17ZM5.5 292.5C-6.92641 292.5 -17 282.426 -17 270H-23C-23 285.74 -10.2401 298.5 5.5 298.5V292.5ZM31 318C18.5736 318 8.5 307.926 8.5 295.5H2.5C2.5 311.24 15.2599 324 31 324V318ZM53.5 295.5C53.5 307.926 43.4264 318 31 318V324C46.7401 324 59.5 311.24 59.5 295.5H53.5ZM79 270C79 282.426 68.9264 292.5 56.5 292.5V298.5C72.2401 298.5 85 285.74 85 270H79ZM56.5 247.5C68.9264 247.5 79 257.574 79 270H85C85 254.26 72.2401 241.5 56.5 241.5V247.5ZM31 222C43.4264 222 53.5 232.074 53.5 244.5H59.5C59.5 228.76 46.7401 216 31 216V222Z" fill="black" mask="url(#path-8-inside-3_2217_78)"/>
<mask id="path-10-inside-4_2217_78" fill="white">
<path fill-rule="evenodd" clip-rule="evenodd" d="M138 188C123.917 188 112.5 199.417 112.5 213.5C98.4167 213.5 87 224.917 87 239C87 253.083 98.4167 264.5 112.5 264.5C112.5 278.583 123.917 290 138 290C152.083 290 163.5 278.583 163.5 264.5C177.583 264.5 189 253.083 189 239C189 224.917 177.583 213.5 163.5 213.5C163.5 199.417 152.083 188 138 188Z"/>
</mask>
<path fill-rule="evenodd" clip-rule="evenodd" d="M138 188C123.917 188 112.5 199.417 112.5 213.5C98.4167 213.5 87 224.917 87 239C87 253.083 98.4167 264.5 112.5 264.5C112.5 278.583 123.917 290 138 290C152.083 290 163.5 278.583 163.5 264.5C177.583 264.5 189 253.083 189 239C189 224.917 177.583 213.5 163.5 213.5C163.5 199.417 152.083 188 138 188Z" fill="white"/>
<path d="M112.5 213.5V216.5H115.5V213.5H112.5ZM112.5 264.5H115.5V261.5H112.5V264.5ZM163.5 264.5V261.5H160.5V264.5H163.5ZM163.5 213.5H160.5V216.5H163.5V213.5ZM115.5 213.5C115.5 201.074 125.574 191 138 191V185C122.26 185 109.5 197.76 109.5 213.5H115.5ZM90 239C90 226.574 100.074 216.5 112.5 216.5V210.5C96.7599 210.5 84 223.26 84 239H90ZM112.5 261.5C100.074 261.5 90 251.426 90 239H84C84 254.74 96.7599 267.5 112.5 267.5V261.5ZM138 287C125.574 287 115.5 276.926 115.5 264.5H109.5C109.5 280.24 122.26 293 138 293V287ZM160.5 264.5C160.5 276.926 150.426 287 138 287V293C153.74 293 166.5 280.24 166.5 264.5H160.5ZM186 239C186 251.426 175.926 261.5 163.5 261.5V267.5C179.24 267.5 192 254.74 192 239H186ZM163.5 216.5C175.926 216.5 186 226.574 186 239H192C192 223.26 179.24 210.5 163.5 210.5V216.5ZM138 191C150.426 191 160.5 201.074 160.5 213.5H166.5C166.5 197.76 153.74 185 138 185V191Z" fill="black" mask="url(#path-10-inside-4_2217_78)"/>
<mask id="path-12-inside-5_2217_78" fill="white">
<path fill-rule="evenodd" clip-rule="evenodd" d="M110 297C95.9167 297 84.5 308.417 84.5 322.5C70.4167 322.5 59 333.917 59 348C59 362.083 70.4167 373.5 84.5 373.5C84.5 387.583 95.9167 399 110 399C124.083 399 135.5 387.583 135.5 373.5C149.583 373.5 161 362.083 161 348C161 333.917 149.583 322.5 135.5 322.5C135.5 308.417 124.083 297 110 297Z"/>
</mask>
<path fill-rule="evenodd" clip-rule="evenodd" d="M110 297C95.9167 297 84.5 308.417 84.5 322.5C70.4167 322.5 59 333.917 59 348C59 362.083 70.4167 373.5 84.5 373.5C84.5 387.583 95.9167 399 110 399C124.083 399 135.5 387.583 135.5 373.5C149.583 373.5 161 362.083 161 348C161 333.917 149.583 322.5 135.5 322.5C135.5 308.417 124.083 297 110 297Z" fill="white"/>
<path d="M84.5 322.5V325.5H87.5V322.5H84.5ZM84.5 373.5H87.5V370.5H84.5V373.5ZM135.5 373.5V370.5H132.5V373.5H135.5ZM135.5 322.5H132.5V325.5H135.5V322.5ZM87.5 322.5C87.5 310.074 97.5736 300 110 300V294C94.2599 294 81.5 306.76 81.5 322.5H87.5ZM62 348C62 335.574 72.0736 325.5 84.5 325.5V319.5C68.7599 319.5 56 332.26 56 348H62ZM84.5 370.5C72.0736 370.5 62 360.426 62 348H56C56 363.74 68.7599 376.5 84.5 376.5V370.5ZM110 396C97.5736 396 87.5 385.926 87.5 373.5H81.5C81.5 389.24 94.2599 402 110 402V396ZM132.5 373.5C132.5 385.926 122.426 396 110 396V402C125.74 402 138.5 389.24 138.5 373.5H132.5ZM158 348C158 360.426 147.926 370.5 135.5 370.5V376.5C151.24 376.5 164 363.74 164 348H158ZM135.5 325.5C147.926 325.5 158 335.574 158 348H164C164 332.26 151.24 319.5 135.5 319.5V325.5ZM110 300C122.426 300 132.5 310.074 132.5 322.5H138.5C138.5 306.76 125.74 294 110 294V300Z" fill="black" mask="url(#path-12-inside-5_2217_78)"/>
</g>
<mask id="path-14-inside-6_2217_78" fill="white">
<path fill-rule="evenodd" clip-rule="evenodd" d="M180.341 225.171C180.341 179.789 143.552 143 98.1705 143C52.789 143 16 179.789 16 225.171V355H180.341V225.171Z"/>
</mask>
<path d="M16 355H13V358H16V355ZM180.341 355V358H183.341V355H180.341ZM98.1705 146C141.895 146 177.341 181.446 177.341 225.171H183.341C183.341 178.132 145.209 140 98.1705 140V146ZM19 225.171C19 181.446 54.4459 146 98.1705 146V140C51.1322 140 13 178.132 13 225.171H19ZM19 355V225.171H13V355H19ZM180.341 352H16V358H180.341V352ZM177.341 225.171V355H183.341V225.171H177.341Z" fill="black" mask="url(#path-14-inside-6_2217_78)"/>
<circle cx="134" cy="102" r="44.5" fill="white" stroke="black" stroke-width="3"/>
<path d="M107.642 146.089L35.5824 57.3571L149.826 53.5699L107.642 146.089Z" fill="white" stroke="black" stroke-width="3"/>
<path d="M109.116 189.713L111.729 143.544L146.934 173.528L109.116 189.713Z" fill="white" stroke="black" stroke-width="3"/>
<path d="M66.8366 160.079L109.968 143.405L97.1865 187.846L66.8366 160.079Z" fill="white" stroke="black" stroke-width="3"/>
<circle cx="46" cy="46" r="44.5" transform="matrix(-1 0 0 1 331.203 56)" fill="white" stroke="black" stroke-width="3"/>
<mask id="path-21-inside-7_2217_78" fill="white">
<path d="M340.2 102C340.2 94.7773 338.777 87.6253 336.013 80.9524C333.249 74.2795 329.198 68.2163 324.091 63.1091C318.983 58.0019 312.92 53.9506 306.247 51.1866C299.574 48.4226 292.422 47 285.2 47C277.977 47 270.825 48.4226 264.152 51.1866C257.479 53.9506 251.416 58.0019 246.309 63.1091C241.202 68.2164 237.15 74.2795 234.386 80.9524C231.622 87.6253 230.2 94.7773 230.2 102L285.2 102H340.2Z"/>
</mask>
<path d="M340.2 102C340.2 94.7773 338.777 87.6253 336.013 80.9524C333.249 74.2795 329.198 68.2163 324.091 63.1091C318.983 58.0019 312.92 53.9506 306.247 51.1866C299.574 48.4226 292.422 47 285.2 47C277.977 47 270.825 48.4226 264.152 51.1866C257.479 53.9506 251.416 58.0019 246.309 63.1091C241.202 68.2164 237.15 74.2795 234.386 80.9524C231.622 87.6253 230.2 94.7773 230.2 102L285.2 102H340.2Z" fill="white" stroke="black" stroke-width="6" mask="url(#path-21-inside-7_2217_78)"/>
<path d="M255.5 242.5C255.5 254.13 246.29 263.5 235 263.5C223.71 263.5 214.5 254.13 214.5 242.5C214.5 230.87 223.71 221.5 235 221.5C246.29 221.5 255.5 230.87 255.5 242.5Z" stroke="black" stroke-width="3"/>
<mask id="path-23-inside-8_2217_78" fill="white">
<path d="M203.5 331C209.467 331 215.19 328.682 219.41 324.556C223.629 320.431 226 314.835 226 309C226 303.165 223.629 297.569 219.41 293.444C215.19 289.318 209.467 287 203.5 287L203.5 309V331Z"/>
</mask>
<path d="M203.5 331C209.467 331 215.19 328.682 219.41 324.556C223.629 320.431 226 314.835 226 309C226 303.165 223.629 297.569 219.41 293.444C215.19 289.318 209.467 287 203.5 287L203.5 309V331Z" stroke="black" stroke-width="6" mask="url(#path-23-inside-8_2217_78)"/>
<path d="M294.5 311.5C294.5 323.13 285.29 332.5 274 332.5C262.71 332.5 253.5 323.13 253.5 311.5C253.5 299.87 262.71 290.5 274 290.5C285.29 290.5 294.5 299.87 294.5 311.5Z" stroke="black" stroke-width="3"/>
<path d="M316.5 206.5C316.5 218.13 307.29 227.5 296 227.5C284.71 227.5 275.5 218.13 275.5 206.5C275.5 194.87 284.71 185.5 296 185.5C307.29 185.5 316.5 194.87 316.5 206.5Z" stroke="black" stroke-width="3"/>
<path d="M350.5 265.5C350.5 277.13 341.29 286.5 330 286.5C318.71 286.5 309.5 277.13 309.5 265.5C309.5 253.87 318.71 244.5 330 244.5C341.29 244.5 350.5 253.87 350.5 265.5Z" stroke="black" stroke-width="3"/>
<path d="M268.483 191.351L283.226 147.521L239.396 162.264L268.483 191.351Z" fill="white" stroke="black" stroke-width="3"/>
<path d="M330.425 161.896L286.596 147.154L301.338 190.983L330.425 161.896Z" fill="white" stroke="black" stroke-width="3"/>
<defs>
<clipPath id="clip0_2217_78">
<rect width="164.341" height="212" fill="white" transform="translate(16 143)"/>
</clipPath>
</defs>
</svg>
