<svg width="373" height="75" viewBox="0 0 373 75" fill="none" xmlns="http://www.w3.org/2000/svg">
<rect x="1.5" y="1.50345" width="370" height="72" fill="white" stroke="black" stroke-width="3"/>
<line x1="14.8614" y1="11.1305" x2="43.6699" y2="72.9104" stroke="black" stroke-width="3"/>
<line x1="1.35946" y1="11.3695" x2="30.1679" y2="73.1495" stroke="black" stroke-width="3"/>
<line x1="30.3595" y1="11.3695" x2="59.1679" y2="73.1495" stroke="black" stroke-width="3"/>
<line x1="51.5858" y1="22.716" x2="74.9417" y2="72.803" stroke="black" stroke-width="3"/>
<line x1="75" y1="72.1734" x2="75" y2="-3.32752e-06" stroke="black" stroke-width="3"/>
<line x1="92.5" y1="72.1769" x2="92.5" y2="0.00347568" stroke="black" stroke-width="3"/>
<line x1="188.5" y1="74.1769" x2="188.5" y2="2.00348" stroke="black" stroke-width="3"/>
<line x1="202.5" y1="72.1769" x2="202.5" y2="0.00347568" stroke="black" stroke-width="3"/>
<line x1="211.5" y1="72.1769" x2="211.5" y2="0.00347568" stroke="black" stroke-width="3"/>
<line x1="229.5" y1="72.1769" x2="229.5" y2="0.00347568" stroke="black" stroke-width="3"/>
<line x1="245.5" y1="72.1769" x2="245.5" y2="0.00347568" stroke="black" stroke-width="3"/>
<line x1="262.5" y1="72.1769" x2="262.5" y2="0.00347568" stroke="black" stroke-width="3"/>
<line x1="342" y1="74.1821" x2="342" y2="26.9982" stroke="black" stroke-width="3"/>
<line x1="357.5" y1="73.1769" x2="357.5" y2="1.00348" stroke="black" stroke-width="3"/>
<line x1="280.5" y1="72.1769" x2="280.5" y2="0.00347568" stroke="black" stroke-width="3"/>
<line x1="115.5" y1="72.1769" x2="115.5" y2="0.00347568" stroke="black" stroke-width="3"/>
<line x1="128.5" y1="74.1864" x2="128.5" y2="22.0034" stroke="black" stroke-width="3"/>
<line x1="115" y1="22.5034" x2="130" y2="22.5034" stroke="black" stroke-width="3"/>
<line y1="11.5034" x2="33" y2="11.5034" stroke="black" stroke-width="3"/>
<line x1="36" y1="23.5034" x2="53" y2="23.5034" stroke="black" stroke-width="3"/>
<line x1="158" y1="11.5034" x2="190" y2="11.5034" stroke="black" stroke-width="3"/>
<line y1="-1.5" x2="68.1666" y2="-1.5" transform="matrix(0.422618 -0.906308 -0.906308 -0.422618 144 72.7834)" stroke="black" stroke-width="3"/>
<line y1="-1.5" x2="68.1666" y2="-1.5" transform="matrix(0.422618 -0.906308 -0.906308 -0.422618 157 72.7834)" stroke="black" stroke-width="3"/>
<line y1="-1.5" x2="68.1666" y2="-1.5" transform="matrix(0.422618 -0.906308 -0.906308 -0.422618 129 71.7834)" stroke="black" stroke-width="3"/>
<line x1="247" y1="14.5034" x2="262" y2="14.5034" stroke="black" stroke-width="3"/>
<line x1="203" y1="39.5034" x2="211" y2="39.5034" stroke="black" stroke-width="3"/>
<line x1="343" y1="28.5034" x2="357" y2="28.5034" stroke="black" stroke-width="3"/>
<line x1="295.861" y1="10.3695" x2="324.67" y2="72.1495" stroke="black" stroke-width="3"/>
<line x1="282.359" y1="10.6085" x2="311.168" y2="72.3885" stroke="black" stroke-width="3"/>
<line x1="312.359" y1="10.3695" x2="341.168" y2="72.1495" stroke="black" stroke-width="3"/>
<line x1="281" y1="10.5034" x2="314" y2="10.5034" stroke="black" stroke-width="3"/>
</svg>
