<svg width="602" height="361" viewBox="0 0 602 361" fill="none" xmlns="http://www.w3.org/2000/svg">
<mask id="path-1-inside-1_98_1001" fill="white">
<path d="M223 184H364V361H223V184Z"/>
</mask>
<path d="M223 184H364V361H223V184Z" fill="white"/>
<path d="M364 184H367V181H364V184ZM364 361V364H367V361H364ZM223 187H364V181H223V187ZM361 184V361H367V184H361ZM364 358H223V364H364V358Z" fill="black" mask="url(#path-1-inside-1_98_1001)"/>
<rect x="-1.5" y="1.5" width="118" height="20" transform="matrix(-1 0 0 1 351 258)" fill="white" stroke="black" stroke-width="3"/>
<rect x="-1.5" y="1.5" width="118" height="52" transform="matrix(-1 0 0 1 351 287)" fill="white" stroke="black" stroke-width="3"/>
<rect x="-1.5" y="1.5" width="44" height="52" transform="matrix(-1 0 0 1 320 276)" fill="white" stroke="black" stroke-width="3"/>
<rect x="-1.5" y="1.5" width="14" height="32" transform="matrix(-1 0 0 1 276 287)" fill="white" stroke="black" stroke-width="3"/>
<circle cx="347.5" cy="248.5" r="5" fill="white" stroke="black" stroke-width="3"/>
<line x1="226" y1="237.5" x2="364" y2="237.5" stroke="black" stroke-width="3"/>
<circle cx="240.5" cy="248.5" r="5" fill="white" stroke="black" stroke-width="3"/>
<circle cx="255.5" cy="248.5" r="5" fill="white" stroke="black" stroke-width="3"/>
<circle cx="270.5" cy="248.5" r="5" fill="white" stroke="black" stroke-width="3"/>
<circle cx="285.5" cy="248.5" r="5" fill="white" stroke="black" stroke-width="3"/>
<rect x="1.5" y="185.5" width="223" height="174" fill="white" stroke="black" stroke-width="3"/>
<rect x="1.5" y="185.5" width="223" height="52" fill="white" stroke="black" stroke-width="3"/>
<rect x="121.5" y="237.5" width="103" height="122" fill="white" stroke="black" stroke-width="3"/>
<line x1="131.5" y1="276" x2="131.5" y2="246" stroke="black" stroke-width="3"/>
<rect x="1.5" y="277.5" width="120" height="40" fill="white" stroke="black" stroke-width="3"/>
<line x1="47" y1="287.5" x2="77.5" y2="287.5" stroke="black" stroke-width="3"/>
<path d="M288.5 199C288.5 199.562 288.145 200.357 286.892 201.309C285.663 202.243 283.789 203.149 281.34 203.936C276.458 205.505 269.62 206.5 262 206.5C254.38 206.5 247.542 205.505 242.66 203.936C240.211 203.149 238.337 202.243 237.108 201.309C235.855 200.357 235.5 199.562 235.5 199C235.5 198.438 235.855 197.643 237.108 196.691C238.337 195.757 240.211 194.851 242.66 194.064C247.542 192.495 254.38 191.5 262 191.5C269.62 191.5 276.458 192.495 281.34 194.064C283.789 194.851 285.663 195.757 286.892 196.691C288.145 197.643 288.5 198.438 288.5 199Z" fill="white" stroke="black" stroke-width="3"/>
<path d="M352.5 199C352.5 199.562 352.145 200.357 350.892 201.309C349.663 202.243 347.789 203.149 345.34 203.936C340.458 205.505 333.62 206.5 326 206.5C318.38 206.5 311.542 205.505 306.66 203.936C304.211 203.149 302.337 202.243 301.108 201.309C299.855 200.357 299.5 199.562 299.5 199C299.5 198.438 299.855 197.643 301.108 196.691C302.337 195.757 304.211 194.851 306.66 194.064C311.542 192.495 318.38 191.5 326 191.5C333.62 191.5 340.458 192.495 345.34 194.064C347.789 194.851 349.663 195.757 350.892 196.691C352.145 197.643 352.5 198.438 352.5 199Z" fill="white" stroke="black" stroke-width="3"/>
<path d="M288.5 221C288.5 221.562 288.145 222.357 286.892 223.309C285.663 224.243 283.789 225.149 281.34 225.936C276.458 227.505 269.62 228.5 262 228.5C254.38 228.5 247.542 227.505 242.66 225.936C240.211 225.149 238.337 224.243 237.108 223.309C235.855 222.357 235.5 221.562 235.5 221C235.5 220.438 235.855 219.643 237.108 218.691C238.337 217.757 240.211 216.851 242.66 216.064C247.542 214.495 254.38 213.5 262 213.5C269.62 213.5 276.458 214.495 281.34 216.064C283.789 216.851 285.663 217.757 286.892 218.691C288.145 219.643 288.5 220.438 288.5 221Z" fill="white" stroke="black" stroke-width="3"/>
<path d="M352.5 221C352.5 221.562 352.145 222.357 350.892 223.309C349.663 224.243 347.789 225.149 345.34 225.936C340.458 227.505 333.62 228.5 326 228.5C318.38 228.5 311.542 227.505 306.66 225.936C304.211 225.149 302.337 224.243 301.108 223.309C299.855 222.357 299.5 221.562 299.5 221C299.5 220.438 299.855 219.643 301.108 218.691C302.337 217.757 304.211 216.851 306.66 216.064C311.542 214.495 318.38 213.5 326 213.5C333.62 213.5 340.458 214.495 345.34 216.064C347.789 216.851 349.663 217.757 350.892 218.691C352.145 219.643 352.5 220.438 352.5 221Z" fill="white" stroke="black" stroke-width="3"/>
<rect x="394.5" y="1.5" width="206" height="358" rx="20.5" fill="white" stroke="black" stroke-width="3"/>
<line x1="394.999" y1="91" x2="602.001" y2="91" stroke="black" stroke-width="3"/>
<rect x="432.909" y="142.012" width="43" height="48" transform="rotate(-19.1454 432.909 142.012)" fill="white" stroke="black" stroke-width="3"/>
<rect x="514.365" y="189.861" width="30.2478" height="33.8617" transform="rotate(16.3005 514.365 189.861)" fill="white" stroke="black" stroke-width="3"/>
<rect x="527.809" y="176.861" width="11.4637" height="24.7557" transform="rotate(16.3005 527.809 176.861)" fill="white" stroke="black" stroke-width="3"/>
<rect x="508.5" y="113.5" width="53" height="34" fill="white" stroke="black" stroke-width="3"/>
<circle cx="535" cy="112" r="8.5" fill="white"/>
<circle cx="535" cy="112" r="8.5" fill="white"/>
<circle cx="535" cy="112" r="8.5" fill="white"/>
<circle cx="535" cy="112" r="8.5" stroke="black" stroke-width="3"/>
<mask id="path-30-inside-2_98_1001" fill="white">
<path d="M393 138C398.909 138 404.761 136.836 410.221 134.575C415.68 132.313 420.641 128.998 424.82 124.82C428.998 120.641 432.313 115.68 434.575 110.221C436.836 104.761 438 98.9095 438 93C438 87.0905 436.836 81.2389 434.575 75.7792C432.313 70.3196 428.998 65.3588 424.82 61.1802C420.641 57.0016 415.68 53.6869 410.221 51.4254C404.761 49.164 398.909 48 393 48L393 93V138Z"/>
</mask>
<path d="M393 138C398.909 138 404.761 136.836 410.221 134.575C415.68 132.313 420.641 128.998 424.82 124.82C428.998 120.641 432.313 115.68 434.575 110.221C436.836 104.761 438 98.9095 438 93C438 87.0905 436.836 81.2389 434.575 75.7792C432.313 70.3196 428.998 65.3588 424.82 61.1802C420.641 57.0016 415.68 53.6869 410.221 51.4254C404.761 49.164 398.909 48 393 48L393 93V138Z" stroke="black" stroke-width="6" mask="url(#path-30-inside-2_98_1001)"/>
<path d="M457.127 123.483L458.31 148.012L439.508 132.214L457.127 123.483Z" fill="white" stroke="black" stroke-width="3"/>
</svg>
