<svg width="194" height="252" viewBox="0 0 194 252" fill="none" xmlns="http://www.w3.org/2000/svg">
<path d="M56.8521 250.5L46.664 152.5H148.336L138.148 250.5H56.8521Z" fill="white" stroke="black" stroke-width="3"/>
<path d="M66.3904 87.7506C78.4339 94.8691 86.6649 105.966 91.8996 115.368C94.5113 120.059 96.3619 124.3 97.5583 127.365C98.0953 128.74 98.4998 129.877 98.7817 130.709C97.9167 130.864 96.7255 131.058 95.2615 131.25C91.9997 131.68 87.3918 132.104 82.0232 132.077C71.2626 132.025 57.5718 130.165 45.5283 123.046C33.4848 115.928 25.2538 104.83 20.0191 95.4286C17.4074 90.7381 15.5567 86.4969 14.3604 83.4321C13.8234 82.0565 13.4188 80.9196 13.137 80.0873C14.002 79.933 15.1931 79.7391 16.6572 79.5463C19.919 79.1166 24.5269 78.6929 29.8955 78.7193C40.656 78.772 54.3469 80.632 66.3904 87.7506Z" fill="white" stroke="black" stroke-width="3"/>
<path d="M152.156 93.6968C141.248 102.456 127.961 106.245 117.317 107.828C112.007 108.618 107.385 108.854 104.096 108.893C102.619 108.91 101.412 108.888 100.534 108.858C100.695 107.994 100.934 106.811 101.269 105.373C102.018 102.17 103.246 97.7082 105.164 92.6938C109.008 82.6431 115.576 70.4877 126.485 61.7282C137.393 52.9687 150.68 49.1799 161.323 47.5968C166.634 46.807 171.255 46.5708 174.545 46.5321C176.021 46.5147 177.228 46.5371 178.106 46.5668C177.945 47.4307 177.707 48.6136 177.371 50.0516C176.623 53.2554 175.394 57.7167 173.477 62.7311C169.633 72.7818 163.064 84.9373 152.156 93.6968Z" fill="white" stroke="black" stroke-width="3"/>
<path d="M112.804 31.696C112.413 39.7538 108.963 46.9656 105.543 52.215C103.84 54.8299 102.161 56.9317 100.91 58.3768C100.582 58.7567 100.283 59.0907 100.022 59.3763C99.7893 59.0668 99.5244 58.7054 99.234 58.2955C98.1294 56.7362 96.6618 54.4817 95.2194 51.7142C92.3238 46.1584 89.588 38.6466 89.9788 30.5888C90.3697 22.531 93.8198 15.3193 97.2395 10.0699C98.943 7.455 100.622 5.35315 101.872 3.90801C102.201 3.52815 102.5 3.19412 102.761 2.90852C102.993 3.21806 103.258 3.57944 103.549 3.98932C104.653 5.5487 106.121 7.80319 107.563 10.5707C110.459 16.1264 113.195 23.6382 112.804 31.696Z" fill="white" stroke="black" stroke-width="3"/>
<line x1="99.5" y1="58" x2="99.5" y2="153" stroke="black" stroke-width="3"/>
</svg>
