<svg width="53" height="50" viewBox="0 0 53 50" fill="none" xmlns="http://www.w3.org/2000/svg">
<mask id="path-1-inside-1_1_1402" fill="white">
<path d="M53 49.5C53 36.3718 50.208 23.7813 45.2383 14.4982C40.2686 5.21517 33.5282 9.91153e-07 26.5 0C19.4718 -9.91153e-07 12.7314 5.21516 7.76167 14.4982C2.79196 23.7813 1.06123e-06 36.3718 0 49.5L26.5 49.5H53Z"/>
</mask>
<path d="M53 49.5C53 36.3718 50.208 23.7813 45.2383 14.4982C40.2686 5.21517 33.5282 9.91153e-07 26.5 0C19.4718 -9.91153e-07 12.7314 5.21516 7.76167 14.4982C2.79196 23.7813 1.06123e-06 36.3718 0 49.5L26.5 49.5H53Z" stroke="black" stroke-width="6" mask="url(#path-1-inside-1_1_1402)"/>
</svg>
