<svg width="373" height="76" viewBox="0 0 373 76" fill="none" xmlns="http://www.w3.org/2000/svg">
<rect x="1.5" y="1.5" width="370" height="72" fill="white" stroke="black" stroke-width="3"/>
<line x1="48.5" y1="72.1735" x2="48.5" y2="2.71901e-05" stroke="black" stroke-width="3"/>
<line x1="157.5" y1="74.1735" x2="157.5" y2="2.00003" stroke="black" stroke-width="3"/>
<line x1="276.5" y1="74.1733" x2="276.5" y2="1.99991" stroke="black" stroke-width="3"/>
<line x1="293.5" y1="74.1733" x2="293.5" y2="1.99991" stroke="black" stroke-width="3"/>
<line x1="172.5" y1="72.1735" x2="172.5" y2="2.71901e-05" stroke="black" stroke-width="3"/>
<line x1="188.5" y1="72.1735" x2="188.5" y2="2.71901e-05" stroke="black" stroke-width="3"/>
<line x1="205.5" y1="72" x2="205.5" y2="15" stroke="black" stroke-width="3"/>
<line x1="221.5" y1="72" x2="221.5" y2="15" stroke="black" stroke-width="3"/>
<line x1="72.5" y1="72.1735" x2="72.5" y2="2.71901e-05" stroke="black" stroke-width="3"/>
<line x1="88.5" y1="72" x2="88.5" y2="31" stroke="black" stroke-width="3"/>
<line x1="30.5" y1="72.1735" x2="30.5" y2="2.71901e-05" stroke="black" stroke-width="3"/>
<line x1="73" y1="31.5" x2="90" y2="31.5" stroke="black" stroke-width="3"/>
<line x1="189" y1="21.5" x2="206" y2="21.5" stroke="black" stroke-width="3"/>
<line x1="222" y1="28.5" x2="239" y2="28.5" stroke="black" stroke-width="3"/>
<line x1="229" y1="11.5" x2="249" y2="11.5" stroke="black" stroke-width="3"/>
<line x1="338" y1="11.5" x2="370" y2="11.5" stroke="black" stroke-width="3"/>
<line x1="318" y1="23.5" x2="334" y2="23.5" stroke="black" stroke-width="3"/>
<line x1="204" y1="13.5" x2="223" y2="13.5" stroke="black" stroke-width="3"/>
<line x1="32" y1="16.5" x2="49" y2="16.5" stroke="black" stroke-width="3"/>
<line x1="82" y1="12.5" x2="130" y2="12.5" stroke="black" stroke-width="3"/>
<line x1="230.359" y1="12.3661" x2="259.168" y2="74.146" stroke="black" stroke-width="3"/>
<line x1="224.099" y1="29.0061" x2="245.428" y2="74.7449" stroke="black" stroke-width="3"/>
<line x1="247.359" y1="12.3661" x2="276.168" y2="74.146" stroke="black" stroke-width="3"/>
<line x1="96.8614" y1="12.3661" x2="125.67" y2="74.146" stroke="black" stroke-width="3"/>
<line x1="83.3595" y1="12.6051" x2="112.168" y2="74.385" stroke="black" stroke-width="3"/>
<line x1="112.359" y1="12.6051" x2="141.168" y2="74.385" stroke="black" stroke-width="3"/>
<line x1="127.697" y1="12.2065" x2="156.604" y2="74.1982" stroke="black" stroke-width="3"/>
<line y1="-1.5" x2="68.1666" y2="-1.5" transform="matrix(-0.422618 0.906308 0.906308 0.422618 357.08 12)" stroke="black" stroke-width="3"/>
<line y1="-1.5" x2="68.1666" y2="-1.5" transform="matrix(-0.422618 0.906308 0.906308 0.422618 370.582 12.239)" stroke="black" stroke-width="3"/>
<line y1="-1.5" x2="68.1666" y2="-1.5" transform="matrix(-0.422618 0.906308 0.906308 0.422618 341.582 12.239)" stroke="black" stroke-width="3"/>
<line y1="-1.5" x2="55.2649" y2="-1.5" transform="matrix(-0.422618 0.906308 0.906308 0.422618 320.356 23)" stroke="black" stroke-width="3"/>
</svg>
