<svg width="141" height="177" viewBox="0 0 141 177" fill="none" xmlns="http://www.w3.org/2000/svg">
<rect x="-1.5" y="1.5" width="138" height="52" transform="matrix(-1 0 0 1 138 0)" fill="white" stroke="black" stroke-width="3"/>
<rect x="-1.5" y="1.5" width="138" height="122" transform="matrix(-1 0 0 1 138 52)" fill="white" stroke="black" stroke-width="3"/>
<rect x="-1.5" y="1.5" width="118" height="20" transform="matrix(-1 0 0 1 128 74)" fill="white" stroke="black" stroke-width="3"/>
<rect x="-1.5" y="1.5" width="118" height="52" transform="matrix(-1 0 0 1 128 103)" fill="white" stroke="black" stroke-width="3"/>
<rect x="-1.5" y="1.5" width="44" height="52" transform="matrix(-1 0 0 1 97 92)" fill="white" stroke="black" stroke-width="3"/>
<rect x="-1.5" y="1.5" width="14" height="32" transform="matrix(-1 0 0 1 53 103)" fill="white" stroke="black" stroke-width="3"/>
<path d="M65.5 15C65.5 15.5621 65.1448 16.3569 63.892 17.3089C62.6628 18.2431 60.7894 19.1486 58.34 19.9359C53.458 21.5051 46.6201 22.5 39 22.5C31.3799 22.5 24.542 21.5051 19.66 19.9359C17.2106 19.1486 15.3372 18.2431 14.108 17.3089C12.8552 16.3569 12.5 15.5621 12.5 15C12.5 14.4379 12.8552 13.6431 14.108 12.6911C15.3372 11.7569 17.2106 10.8514 19.66 10.0641C24.542 8.49488 31.3799 7.5 39 7.5C46.6201 7.5 53.458 8.49488 58.34 10.0641C60.7894 10.8514 62.6628 11.7569 63.892 12.6911C65.1448 13.6431 65.5 14.4379 65.5 15Z" fill="white" stroke="black" stroke-width="3"/>
<path d="M129.5 15C129.5 15.5621 129.145 16.3569 127.892 17.3089C126.663 18.2431 124.789 19.1486 122.34 19.9359C117.458 21.5051 110.62 22.5 103 22.5C95.3799 22.5 88.542 21.5051 83.66 19.9359C81.2106 19.1486 79.3372 18.2431 78.108 17.3089C76.8552 16.3569 76.5 15.5621 76.5 15C76.5 14.4379 76.8552 13.6431 78.108 12.6911C79.3372 11.7569 81.2106 10.8514 83.66 10.0641C88.542 8.49488 95.3799 7.5 103 7.5C110.62 7.5 117.458 8.49488 122.34 10.0641C124.789 10.8514 126.663 11.7569 127.892 12.6911C129.145 13.6431 129.5 14.4379 129.5 15Z" fill="white" stroke="black" stroke-width="3"/>
<path d="M65.5 37C65.5 37.5621 65.1448 38.3569 63.892 39.3089C62.6628 40.2431 60.7894 41.1486 58.34 41.9359C53.458 43.5051 46.6201 44.5 39 44.5C31.3799 44.5 24.542 43.5051 19.66 41.9359C17.2106 41.1486 15.3372 40.2431 14.108 39.3089C12.8552 38.3569 12.5 37.5621 12.5 37C12.5 36.4379 12.8552 35.6431 14.108 34.6911C15.3372 33.7569 17.2106 32.8514 19.66 32.0641C24.542 30.4949 31.3799 29.5 39 29.5C46.6201 29.5 53.458 30.4949 58.34 32.0641C60.7894 32.8514 62.6628 33.7569 63.892 34.6911C65.1448 35.6431 65.5 36.4379 65.5 37Z" fill="white" stroke="black" stroke-width="3"/>
<path d="M129.5 37C129.5 37.5621 129.145 38.3569 127.892 39.3089C126.663 40.2431 124.789 41.1486 122.34 41.9359C117.458 43.5051 110.62 44.5 103 44.5C95.3799 44.5 88.542 43.5051 83.66 41.9359C81.2106 41.1486 79.3372 40.2431 78.108 39.3089C76.8552 38.3569 76.5 37.5621 76.5 37C76.5 36.4379 76.8552 35.6431 78.108 34.6911C79.3372 33.7569 81.2106 32.8514 83.66 32.0641C88.542 30.4949 95.3799 29.5 103 29.5C110.62 29.5 117.458 30.4949 122.34 32.0641C124.789 32.8514 126.663 33.7569 127.892 34.6911C129.145 35.6431 129.5 36.4379 129.5 37Z" fill="white" stroke="black" stroke-width="3"/>
<circle cx="17.5" cy="64.5" r="5" fill="white" stroke="black" stroke-width="3"/>
<circle cx="32.5" cy="64.5" r="5" fill="white" stroke="black" stroke-width="3"/>
<circle cx="47.5" cy="64.5" r="5" fill="white" stroke="black" stroke-width="3"/>
<circle cx="62.5" cy="64.5" r="5" fill="white" stroke="black" stroke-width="3"/>
<circle cx="124.5" cy="64.5" r="5" fill="white" stroke="black" stroke-width="3"/>
</svg>
