<svg width="167" height="219" viewBox="0 0 167 219" fill="none" xmlns="http://www.w3.org/2000/svg">
<path d="M165 217.505L156.002 159.401H134.148L159.601 217.505H165Z" fill="white" stroke="black" stroke-width="3"/>
<path d="M2 217.505L10.9984 159.401H32.8517L7.39905 217.505H2Z" fill="white" stroke="black" stroke-width="3"/>
<rect x="3.5" y="48.2917" width="160" height="113.208" fill="white" stroke="black" stroke-width="3"/>
<rect x="14.5" y="60.5" width="137" height="88.5268" fill="white" stroke="black" stroke-width="3"/>
<line x1="83.2108" y1="46.9624" x2="123.521" y2="6.65229" stroke="black" stroke-width="3"/>
<line x1="44.1964" y1="6.65223" x2="84.5065" y2="46.9623" stroke="black" stroke-width="3"/>
<circle cx="43.1358" cy="7.71293" r="6.21293" fill="white" stroke="black" stroke-width="3"/>
<circle cx="124.379" cy="7.71287" r="6.21293" fill="white" stroke="black" stroke-width="3"/>
<line x1="29.5" y1="150.031" x2="29.5" y2="59" stroke="black" stroke-width="3"/>
<line x1="50.5" y1="150.031" x2="50.5" y2="59" stroke="black" stroke-width="3"/>
<line x1="71.5" y1="150.031" x2="71.5" y2="59" stroke="black" stroke-width="3"/>
<line x1="92.5" y1="150.031" x2="92.5" y2="59" stroke="black" stroke-width="3"/>
<line x1="113.5" y1="150.031" x2="113.5" y2="59" stroke="black" stroke-width="3"/>
<line x1="134.5" y1="150.031" x2="134.5" y2="59" stroke="black" stroke-width="3"/>
</svg>
